<?xml version="1.0" encoding="UTF-8"?>
<svg id="Layer_2" data-name="Layer 2" xmlns="http://www.w3.org/2000/svg" viewBox="0 0 1437.25 719.69">
  <defs>
    <style>
      .cls-1 {
        fill: #222;
      }

      .cls-1, .cls-2, .cls-3, .cls-4, .cls-5 {
        stroke-width: 0px;
      }

      .cls-2 {
        fill: #37383f;
      }

      .cls-6 {
        fill: #fff;
      }

      .cls-6, .cls-7, .cls-8, .cls-9 {
        isolation: isolate;
      }

      .cls-6, .cls-8, .cls-10 {
        font-family: CascadiaCode-Regular, 'Cascadia Code';
      }

      .cls-6, .cls-8, .cls-9 {
        font-size: 12.08px;
      }

      .cls-11 {
        fill: none;
        stroke: #191919;
        stroke-width: 2px;
      }

      .cls-3 {
        fill: #fec311;
      }

      .cls-7 {
        fill: #000;
        font-size: 13.01px;
      }

      .cls-7, .cls-9 {
        font-family: CascadiaCode-Italic, 'Cascadia Code';
        font-style: italic;
        font-variation-settings: 'wght' 400;
      }

      .cls-4 {
        fill: #666;
      }

      .cls-5, .cls-8, .cls-10 {
        fill: #d7d7d9;
      }

      .cls-10 {
        font-size: 29.33px;
        stroke: #d7d7d9;
        stroke-miterlimit: 10;
      }

      .cls-9 {
        fill: #999;
      }
    </style>
  </defs>
  <g id="Layer_1-2" data-name="Layer 1">
    <path class="cls-3" d="M1407.25,719.69H30c-16.57,0-30-13.43-30-30V67.41h1437.25v622.28c0,16.57-13.43,30-30,30Z"/>
    <path class="cls-1" d="M30,0h1377.25c16.56,0,30,13.44,30,30v37.41H0V30C0,13.44,13.44,0,30,0Z"/>
    <text class="cls-10" transform="translate(435.04 42.32)"><tspan x="0" y="0">Homestay - DATABASE DESIGN SCHEMA</tspan></text>
    <path class="cls-11" d="M1365.8,171.08h9.29c6.19,0,9.29,3.1,9.29,9.29v454.34c0,6.19-3.1,9.29-9.29,9.29h-761.72c-6.19,0-9.29-3.1-9.29-9.29V208.68c0-5.25-2.62-7.87-7.87-7.87h-26.45,26.45c5.25,0,7.87,2.62,7.87,7.87v426.03c0,6.19,3.1,9.29,9.29,9.29h761.72c6.19,0,9.29-3.1,9.29-9.29V180.37c0-6.19-3.1-9.29-9.29-9.29h-9.29ZM1375.09,167.37v7.43M569.76,197.1l9.29,3.72-9.29,3.72"/>
    <text class="cls-7" transform="translate(1368.59 162.3)"><tspan x="0" y="0">1</tspan></text>
    <text class="cls-7" transform="translate(572.55 192.03)"><tspan x="0" y="0">*</tspan></text>
    <path class="cls-11" d="M1141.63,171.08h-63.47,63.47ZM1132.34,167.37v7.43M1078.16,167.37l9.29,3.72-9.29,3.72"/>
    <text class="cls-7" transform="translate(1131.68 162.3)"><tspan x="0" y="0">1</tspan></text>
    <text class="cls-7" transform="translate(1080.95 162.3)"><tspan x="0" y="0">*</tspan></text>
    <path class="cls-11" d="M882.46,171.08h20.9c1.55,0,2.32.77,2.32,2.32v25.08c0,1.55.77,2.32,2.32,2.32h20.9-20.9c-1.55,0-2.32-.77-2.32-2.32v-25.08c0-1.55-.77-2.32-2.32-2.32h-20.9ZM891.76,167.37v7.43M928.92,197.1l-9.29,3.72,9.29,3.72"/>
    <text class="cls-7" transform="translate(885.25 162.3)"><tspan x="0" y="0">1</tspan></text>
    <text class="cls-7" transform="translate(918.97 192.03)"><tspan x="0" y="0">*</tspan></text>
    <path class="cls-11" d="M651.85,171.08h-23.77c-3.46,0-5.19-1.73-5.19-5.19v-57.5c0-6.19-3.1-9.29-9.29-9.29h-306.63c-6.19,0-9.29,3.1-9.29,9.29v83.13c0,6.19-3.1,9.29-9.29,9.29h-9.29,9.29c6.19,0,9.29-3.1,9.29-9.29v-83.13c0-6.19,3.1-9.29,9.29-9.29h306.63c6.19,0,9.29,3.1,9.29,9.29v57.5c0,3.46,1.73,5.19,5.19,5.19h23.77ZM642.56,167.37v7.43M279.09,197.1l9.29,3.72-9.29,3.72"/>
    <text class="cls-7" transform="translate(641.9 162.3)"><tspan x="0" y="0">1</tspan></text>
    <text class="cls-7" transform="translate(281.88 192.03)"><tspan x="0" y="0">*</tspan></text>
    <path class="cls-11" d="M342.4,171.08h-25.12c-4.36,0-6.54,2.18-6.54,6.54v46.39c0,4.36-2.18,6.54-6.54,6.54h-25.12,25.12c4.36,0,6.54-2.18,6.54-6.54v-46.39c0-4.36,2.18-6.54,6.54-6.54h25.12ZM333.11,167.37v7.43M279.09,226.83l9.29,3.72-9.29,3.72"/>
    <text class="cls-7" transform="translate(332.45 162.3)"><tspan x="0" y="0">1</tspan></text>
    <text class="cls-7" transform="translate(281.88 221.76)"><tspan x="0" y="0">*</tspan></text>
    <path class="cls-11" d="M1141.63,171.08h-9.29c-6.19,0-9.29,3.1-9.29,9.29v501.69c0,6.19-3.1,9.29-9.29,9.29H306.96c-6.19,0-9.29-3.1-9.29-9.29v-412.5c0-6.19-3.1-9.29-9.29-9.29h-9.29,9.29c6.19,0,9.29,3.1,9.29,9.29v412.5c0,6.19,3.1,9.29,9.29,9.29h806.79c6.19,0,9.29-3.1,9.29-9.29V180.37c0-6.19,3.1-9.29,9.29-9.29h9.29ZM1132.34,167.37v7.43M279.09,256.56l9.29,3.72-9.29,3.72"/>
    <text class="cls-7" transform="translate(1131.68 162.3)"><tspan x="0" y="0">1</tspan></text>
    <text class="cls-7" transform="translate(281.88 251.49)"><tspan x="0" y="0">*</tspan></text>
    <path class="cls-11" d="M569.76,171.08h170.29c6.19,0,9.29,3.1,9.29,9.29v176.52c0,6.19,3.1,9.29,9.29,9.29h170.29-170.29c-6.19,0-9.29-3.1-9.29-9.29v-176.52c0-6.19-3.1-9.29-9.29-9.29h-170.29ZM579.05,167.37v7.43M928.92,362.47l-9.29,3.72,9.29,3.72"/>
    <text class="cls-7" transform="translate(572.55 162.3)"><tspan x="0" y="0">1</tspan></text>
    <text class="cls-7" transform="translate(918.97 357.4)"><tspan x="0" y="0">*</tspan></text>
    <path class="cls-11" d="M854.3,544.57h28.02c6.19,0,9.29-3.1,9.29-9.29v-130.07c0-6.19,3.1-9.29,9.29-9.29h28.02-28.02c-6.19,0-9.29,3.1-9.29,9.29v130.07c0,6.19-3.1,9.29-9.29,9.29h-28.02ZM863.6,540.85v7.43M928.92,392.2l-9.29,3.72,9.29,3.72"/>
    <text class="cls-7" transform="translate(857.09 535.78)"><tspan x="0" y="0">1</tspan></text>
    <text class="cls-7" transform="translate(918.97 387.13)"><tspan x="0" y="0">*</tspan></text>
    <rect class="cls-1" x="342.4" y="126.49" width="227.36" height="29.73"/>
    <text class="cls-6" transform="translate(351.69 144.37)"><tspan x="0" y="0">Listings</tspan></text>
    <rect class="cls-2" x="342.4" y="156.22" width="227.36" height="29.73"/>
    <text class="cls-8" transform="translate(351.69 174.1)"><tspan x="0" y="0">ListingID</tspan></text>
    <path class="cls-5" d="M414.64,165.73c1.52,0,2.74,1.23,2.74,2.74s-1.23,2.74-2.74,2.74c-.36,0-.71-.07-1.02-.2l-.81.81h-.61v.91h-.91v.91h-1.83v-1.83l2.56-2.56c-.08-.26-.12-.53-.12-.8,0-1.52,1.23-2.74,2.74-2.74ZM414.64,164.81c-2.02,0-3.66,1.64-3.66,3.66,0,.17.01.34.03.5l-2.34,2.34c-.09.09-.13.2-.13.32v2.48c0,.25.2.46.46.46h2.74c.25,0,.46-.2.46-.46v-.46h.46c.25,0,.46-.2.46-.46v-.38l.76-.77c.25.05.5.08.76.08,2.02,0,3.66-1.64,3.66-3.66s-1.64-3.66-3.66-3.66ZM414.64,167.56c0,.51.41.91.91.91s.91-.41.91-.91-.41-.91-.91-.91-.91.41-.91.91Z"/>
    <text class="cls-9" transform="translate(539.6 174.1)"><tspan x="0" y="0">int</tspan></text>
    <rect class="cls-2" x="342.4" y="185.95" width="227.36" height="29.73"/>
    <text class="cls-8" transform="translate(351.69 203.83)"><tspan x="0" y="0">HostID</tspan></text>
    <text class="cls-9" transform="translate(541.71 203.83)"><tspan x="0" y="0">int</tspan></text>
    <rect class="cls-2" x="342.4" y="215.68" width="227.36" height="29.73"/>
    <text class="cls-8" transform="translate(351.69 233.56)"><tspan x="0" y="0">Title</tspan></text>
    <path class="cls-4" d="M540.03,221.72h18.58s1.86,0,1.86,1.86v11.15s0,1.86-1.86,1.86h-18.58s-1.86,0-1.86-1.86v-11.15s0-1.86,1.86-1.86"/>
    <path class="cls-5" d="M548.22,233.33h-1.09l-4.41-7.02h-.04c.01.19.02.4.04.64.01.24.03.49.03.76.01.27.02.54.02.82v4.8h-.87v-8.36h1.08l4.4,7h.04c0-.13-.02-.32-.03-.57-.01-.25-.02-.51-.03-.79,0-.29-.01-.55-.01-.79v-4.84h.89v8.36Z"/>
    <path class="cls-5" d="M556.75,233.33h-1.09l-4.41-7.02h-.04c.01.19.02.4.04.64.01.24.03.49.03.76.01.27.02.54.02.82v4.8h-.87v-8.36h1.08l4.4,7h.04c0-.13-.02-.32-.03-.57-.01-.25-.02-.51-.03-.79,0-.29-.01-.55-.01-.79v-4.84h.89v8.36Z"/>
    <text class="cls-9" transform="translate(447.31 233.56)"><tspan x="0" y="0">varchar[100]</tspan></text>
    <rect class="cls-2" x="342.4" y="245.41" width="227.36" height="29.73"/>
    <text class="cls-8" transform="translate(351.69 263.29)"><tspan x="0" y="0">Description</tspan></text>
    <text class="cls-9" transform="translate(534.75 263.29)"><tspan x="0" y="0">text</tspan></text>
    <rect class="cls-2" x="342.4" y="275.14" width="227.36" height="29.73"/>
    <text class="cls-8" transform="translate(351.69 293.02)"><tspan x="0" y="0">Address</tspan></text>
    <path class="cls-4" d="M540.03,281.18h18.58s1.86,0,1.86,1.86v11.15s0,1.86-1.86,1.86h-18.58s-1.86,0-1.86-1.86v-11.15s0-1.86,1.86-1.86"/>
    <path class="cls-5" d="M548.22,292.79h-1.09l-4.41-7.02h-.04c.01.19.02.4.04.64.01.24.03.49.03.76.01.27.02.54.02.82v4.8h-.87v-8.36h1.08l4.4,7h.04c0-.13-.02-.32-.03-.57-.01-.25-.02-.51-.03-.79,0-.29-.01-.55-.01-.79v-4.84h.89v8.36Z"/>
    <path class="cls-5" d="M556.75,292.79h-1.09l-4.41-7.02h-.04c.01.19.02.4.04.64.01.24.03.49.03.76.01.27.02.54.02.82v4.8h-.87v-8.36h1.08l4.4,7h.04c0-.13-.02-.32-.03-.57-.01-.25-.02-.51-.03-.79,0-.29-.01-.55-.01-.79v-4.84h.89v8.36Z"/>
    <text class="cls-9" transform="translate(447.31 293.02)"><tspan x="0" y="0">varchar[255]</tspan></text>
    <rect class="cls-2" x="342.4" y="304.87" width="227.36" height="29.73"/>
    <text class="cls-8" transform="translate(351.69 322.75)"><tspan x="0" y="0">City</tspan></text>
    <path class="cls-4" d="M540.03,310.91h18.58s1.86,0,1.86,1.86v11.15s0,1.86-1.86,1.86h-18.58s-1.86,0-1.86-1.86v-11.15s0-1.86,1.86-1.86"/>
    <path class="cls-5" d="M548.22,322.52h-1.09l-4.41-7.02h-.04c.01.19.02.4.04.64.01.24.03.49.03.76.01.27.02.54.02.82v4.8h-.87v-8.36h1.08l4.4,7h.04c0-.13-.02-.32-.03-.57-.01-.25-.02-.51-.03-.79,0-.29-.01-.55-.01-.79v-4.84h.89v8.36Z"/>
    <path class="cls-5" d="M556.75,322.52h-1.09l-4.41-7.02h-.04c.01.19.02.4.04.64.01.24.03.49.03.76.01.27.02.54.02.82v4.8h-.87v-8.36h1.08l4.4,7h.04c0-.13-.02-.32-.03-.57-.01-.25-.02-.51-.03-.79,0-.29-.01-.55-.01-.79v-4.84h.89v8.36Z"/>
    <text class="cls-9" transform="translate(447.31 322.75)"><tspan x="0" y="0">varchar[100]</tspan></text>
    <rect class="cls-2" x="342.4" y="334.6" width="227.36" height="29.73"/>
    <text class="cls-8" transform="translate(351.69 352.48)"><tspan x="0" y="0">State</tspan></text>
    <path class="cls-4" d="M540.03,340.64h18.58s1.86,0,1.86,1.86v11.15s0,1.86-1.86,1.86h-18.58s-1.86,0-1.86-1.86v-11.15s0-1.86,1.86-1.86"/>
    <path class="cls-5" d="M548.22,352.25h-1.09l-4.41-7.02h-.04c.01.19.02.4.04.64.01.24.03.49.03.76.01.27.02.54.02.82v4.8h-.87v-8.36h1.08l4.4,7h.04c0-.13-.02-.32-.03-.57-.01-.25-.02-.51-.03-.79,0-.29-.01-.55-.01-.79v-4.84h.89v8.36Z"/>
    <path class="cls-5" d="M556.75,352.25h-1.09l-4.41-7.02h-.04c.01.19.02.4.04.64.01.24.03.49.03.76.01.27.02.54.02.82v4.8h-.87v-8.36h1.08l4.4,7h.04c0-.13-.02-.32-.03-.57-.01-.25-.02-.51-.03-.79,0-.29-.01-.55-.01-.79v-4.84h.89v8.36Z"/>
    <text class="cls-9" transform="translate(459.31 352.48)"><tspan x="0" y="0">varchar[100]</tspan></text>
    <rect class="cls-2" x="342.4" y="364.33" width="227.36" height="29.73"/>
    <text class="cls-8" transform="translate(351.69 382.21)"><tspan x="0" y="0">Country</tspan></text>
    <path class="cls-4" d="M540.03,370.37h18.58s1.86,0,1.86,1.86v11.15s0,1.86-1.86,1.86h-18.58s-1.86,0-1.86-1.86v-11.15s0-1.86,1.86-1.86"/>
    <path class="cls-5" d="M548.22,381.98h-1.09l-4.41-7.02h-.04c.01.19.02.4.04.64.01.24.03.49.03.76.01.27.02.54.02.82v4.8h-.87v-8.36h1.08l4.4,7h.04c0-.13-.02-.32-.03-.57-.01-.25-.02-.51-.03-.79,0-.29-.01-.55-.01-.79v-4.84h.89v8.36Z"/>
    <path class="cls-5" d="M556.75,381.98h-1.09l-4.41-7.02h-.04c.01.19.02.4.04.64.01.24.03.49.03.76.01.27.02.54.02.82v4.8h-.87v-8.36h1.08l4.4,7h.04c0-.13-.02-.32-.03-.57-.01-.25-.02-.51-.03-.79,0-.29-.01-.55-.01-.79v-4.84h.89v8.36Z"/>
    <text class="cls-9" transform="translate(447.31 382.21)"><tspan x="0" y="0">varchar[100]</tspan></text>
    <rect class="cls-2" x="342.4" y="394.06" width="227.36" height="29.73"/>
    <text class="cls-8" transform="translate(351.69 411.95)"><tspan x="0" y="0">Latitude</tspan></text>
    <text class="cls-9" transform="translate(468.78 411.95)"><tspan x="0" y="0">decimal[10,8]</tspan></text>
    <rect class="cls-2" x="342.4" y="423.79" width="227.36" height="29.73"/>
    <text class="cls-8" transform="translate(351.69 441.68)"><tspan x="0" y="0">Longitude</tspan></text>
    <text class="cls-9" transform="translate(468.78 441.68)"><tspan x="0" y="0">decimal[11,8]</tspan></text>
    <rect class="cls-2" x="342.4" y="453.52" width="227.36" height="29.73"/>
    <text class="cls-8" transform="translate(351.69 471.41)"><tspan x="0" y="0">Price</tspan></text>
    <path class="cls-4" d="M540.03,459.56h18.58s1.86,0,1.86,1.86v11.15s0,1.86-1.86,1.86h-18.58s-1.86,0-1.86-1.86v-11.15s0-1.86,1.86-1.86"/>
    <path class="cls-5" d="M548.22,471.17h-1.09l-4.41-7.02h-.04c.01.19.02.4.04.64.01.24.03.49.03.76.01.27.02.54.02.82v4.8h-.87v-8.36h1.08l4.4,7h.04c0-.13-.02-.32-.03-.57-.01-.25-.02-.51-.03-.79,0-.29-.01-.55-.01-.79v-4.84h.89v8.36Z"/>
    <path class="cls-5" d="M556.75,471.17h-1.09l-4.41-7.02h-.04c.01.19.02.4.04.64.01.24.03.49.03.76.01.27.02.54.02.82v4.8h-.87v-8.36h1.08l4.4,7h.04c0-.13-.02-.32-.03-.57-.01-.25-.02-.51-.03-.79,0-.29-.01-.55-.01-.79v-4.84h.89v8.36Z"/>
    <text class="cls-9" transform="translate(442.76 471.41)"><tspan x="0" y="0">decimal[10,2]</tspan></text>
    <rect class="cls-2" x="342.4" y="483.25" width="227.36" height="29.73"/>
    <text class="cls-8" transform="translate(351.69 501.14)"><tspan x="0" y="0">MaxGuests</tspan></text>
    <path class="cls-4" d="M540.03,489.29h18.58s1.86,0,1.86,1.86v11.15s0,1.86-1.86,1.86h-18.58s-1.86,0-1.86-1.86v-11.15s0-1.86,1.86-1.86"/>
    <path class="cls-5" d="M548.22,500.9h-1.09l-4.41-7.02h-.04c.01.19.02.4.04.64.01.24.03.49.03.76.01.27.02.54.02.82v4.8h-.87v-8.36h1.08l4.4,7h.04c0-.13-.02-.32-.03-.57-.01-.25-.02-.51-.03-.79,0-.29-.01-.55-.01-.79v-4.84h.89v8.36Z"/>
    <path class="cls-5" d="M556.75,500.9h-1.09l-4.41-7.02h-.04c.01.19.02.4.04.64.01.24.03.49.03.76.01.27.02.54.02.82v4.8h-.87v-8.36h1.08l4.4,7h.04c0-.13-.02-.32-.03-.57-.01-.25-.02-.51-.03-.79,0-.29-.01-.55-.01-.79v-4.84h.89v8.36Z"/>
    <text class="cls-9" transform="translate(515.69 501.14)"><tspan x="0" y="0">int</tspan></text>
    <rect class="cls-2" x="342.4" y="512.98" width="227.36" height="29.73"/>
    <text class="cls-8" transform="translate(351.69 530.87)"><tspan x="0" y="0">Beds</tspan></text>
    <path class="cls-4" d="M540.03,519.02h18.58s1.86,0,1.86,1.86v11.15s0,1.86-1.86,1.86h-18.58s-1.86,0-1.86-1.86v-11.15s0-1.86,1.86-1.86"/>
    <path class="cls-5" d="M548.22,530.63h-1.09l-4.41-7.02h-.04c.01.19.02.4.04.64.01.24.03.49.03.76.01.27.02.54.02.82v4.8h-.87v-8.36h1.08l4.4,7h.04c0-.13-.02-.32-.03-.57-.01-.25-.02-.51-.03-.79,0-.29-.01-.55-.01-.79v-4.84h.89v8.36Z"/>
    <path class="cls-5" d="M556.75,530.63h-1.09l-4.41-7.02h-.04c.01.19.02.4.04.64.01.24.03.49.03.76.01.27.02.54.02.82v4.8h-.87v-8.36h1.08l4.4,7h.04c0-.13-.02-.32-.03-.57-.01-.25-.02-.51-.03-.79,0-.29-.01-.55-.01-.79v-4.84h.89v8.36Z"/>
    <text class="cls-9" transform="translate(515.69 530.87)"><tspan x="0" y="0">int</tspan></text>
    <rect class="cls-2" x="342.4" y="542.71" width="227.36" height="29.73"/>
    <text class="cls-8" transform="translate(351.69 560.6)"><tspan x="0" y="0">Baths</tspan></text>
    <path class="cls-4" d="M540.03,548.75h18.58s1.86,0,1.86,1.86v11.15s0,1.86-1.86,1.86h-18.58s-1.86,0-1.86-1.86v-11.15s0-1.86,1.86-1.86"/>
    <path class="cls-5" d="M548.22,560.36h-1.09l-4.41-7.02h-.04c.01.19.02.4.04.64.01.24.03.49.03.76.01.27.02.54.02.82v4.8h-.87v-8.36h1.08l4.4,7h.04c0-.13-.02-.32-.03-.57-.01-.25-.02-.51-.03-.79,0-.29-.01-.55-.01-.79v-4.84h.89v8.36Z"/>
    <path class="cls-5" d="M556.75,560.36h-1.09l-4.41-7.02h-.04c.01.19.02.4.04.64.01.24.03.49.03.76.01.27.02.54.02.82v4.8h-.87v-8.36h1.08l4.4,7h.04c0-.13-.02-.32-.03-.57-.01-.25-.02-.51-.03-.79,0-.29-.01-.55-.01-.79v-4.84h.89v8.36Z"/>
    <text class="cls-9" transform="translate(515.69 560.6)"><tspan x="0" y="0">int</tspan></text>
    <rect class="cls-2" x="342.4" y="572.44" width="227.36" height="29.73"/>
    <text class="cls-8" transform="translate(351.69 590.33)"><tspan x="0" y="0">Amenities</tspan></text>
    <path class="cls-4" d="M540.03,578.48h18.58s1.86,0,1.86,1.86v11.15s0,1.86-1.86,1.86h-18.58s-1.86,0-1.86-1.86v-11.15s0-1.86,1.86-1.86"/>
    <path class="cls-5" d="M548.22,590.09h-1.09l-4.41-7.02h-.04c.01.19.02.4.04.64.01.24.03.49.03.76.01.27.02.54.02.82v4.8h-.87v-8.36h1.08l4.4,7h.04c0-.13-.02-.32-.03-.57-.01-.25-.02-.51-.03-.79,0-.29-.01-.55-.01-.79v-4.84h.89v8.36Z"/>
    <path class="cls-5" d="M556.75,590.09h-1.09l-4.41-7.02h-.04c.01.19.02.4.04.64.01.24.03.49.03.76.01.27.02.54.02.82v4.8h-.87v-8.36h1.08l4.4,7h.04c0-.13-.02-.32-.03-.57-.01-.25-.02-.51-.03-.79,0-.29-.01-.55-.01-.79v-4.84h.89v8.36Z"/>
    <text class="cls-9" transform="translate(447.31 590.33)"><tspan x="0" y="0">varchar[255]</tspan></text>
    <rect class="cls-2" x="342.4" y="602.17" width="227.36" height="29.73"/>
    <text class="cls-8" transform="translate(351.69 620.06)"><tspan x="0" y="0">Rating</tspan></text>
    <path class="cls-4" d="M540.03,608.21h18.58s1.86,0,1.86,1.86v11.15s0,1.86-1.86,1.86h-18.58s-1.86,0-1.86-1.86v-11.15s0-1.86,1.86-1.86"/>
    <path class="cls-5" d="M548.22,619.82h-1.09l-4.41-7.02h-.04c.01.19.02.4.04.64.01.24.03.49.03.76.01.27.02.54.02.82v4.8h-.87v-8.36h1.08l4.4,7h.04c0-.13-.02-.32-.03-.57-.01-.25-.02-.51-.03-.79,0-.29-.01-.55-.01-.79v-4.84h.89v8.36Z"/>
    <path class="cls-5" d="M556.75,619.82h-1.09l-4.41-7.02h-.04c.01.19.02.4.04.64.01.24.03.49.03.76.01.27.02.54.02.82v4.8h-.87v-8.36h1.08l4.4,7h.04c0-.13-.02-.32-.03-.57-.01-.25-.02-.51-.03-.79,0-.29-.01-.55-.01-.79v-4.84h.89v8.36Z"/>
    <text class="cls-9" transform="translate(515.69 620.06)"><tspan x="0" y="0">int</tspan></text>
    <rect class="cls-2" x="342.4" y="631.9" width="227.36" height="29.73"/>
    <text class="cls-8" transform="translate(351.69 649.79)"><tspan x="0" y="0">Reviews</tspan></text>
    <path class="cls-4" d="M540.03,637.94h18.58s1.86,0,1.86,1.86v11.15s0,1.86-1.86,1.86h-18.58s-1.86,0-1.86-1.86v-11.15s0-1.86,1.86-1.86"/>
    <path class="cls-5" d="M548.22,649.55h-1.09l-4.41-7.02h-.04c.01.19.02.4.04.64.01.24.03.49.03.76.01.27.02.54.02.82v4.8h-.87v-8.36h1.08l4.4,7h.04c0-.13-.02-.32-.03-.57-.01-.25-.02-.51-.03-.79,0-.29-.01-.55-.01-.79v-4.84h.89v8.36Z"/>
    <path class="cls-5" d="M556.75,649.55h-1.09l-4.41-7.02h-.04c.01.19.02.4.04.64.01.24.03.49.03.76.01.27.02.54.02.82v4.8h-.87v-8.36h1.08l4.4,7h.04c0-.13-.02-.32-.03-.57-.01-.25-.02-.51-.03-.79,0-.29-.01-.55-.01-.79v-4.84h.89v8.36Z"/>
    <text class="cls-9" transform="translate(515.69 649.79)"><tspan x="0" y="0">int</tspan></text>
    <rect class="cls-1" x="651.85" y="126.49" width="230.61" height="29.73"/>
    <text class="cls-6" transform="translate(661.14 144.37)"><tspan x="0" y="0">Guests</tspan></text>
    <rect class="cls-2" x="651.85" y="156.22" width="230.61" height="29.73"/>
    <text class="cls-8" transform="translate(661.14 174.1)"><tspan x="0" y="0">GuestID</tspan></text>
    <path class="cls-5" d="M718.96,165.73c1.52,0,2.74,1.23,2.74,2.74s-1.23,2.74-2.74,2.74c-.36,0-.71-.07-1.02-.2l-.81.81h-.61v.91h-.91v.91h-1.83v-1.83l2.56-2.56c-.08-.26-.12-.53-.12-.8,0-1.52,1.23-2.74,2.74-2.74ZM718.96,164.81c-2.02,0-3.66,1.64-3.66,3.66,0,.17.01.34.03.5l-2.34,2.34c-.09.09-.13.2-.13.32v2.48c0,.25.2.46.46.46h2.74c.25,0,.46-.2.46-.46v-.46h.46c.25,0,.46-.2.46-.46v-.38l.76-.77c.25.05.5.08.76.08,2.02,0,3.66-1.64,3.66-3.66s-1.64-3.66-3.66-3.66ZM718.96,167.56c0,.51.41.91.91.91s.91-.41.91-.91-.41-.91-.91-.91-.91.41-.91.91Z"/>
    <text class="cls-9" transform="translate(852.31 174.1)"><tspan x="0" y="0">int</tspan></text>
    <rect class="cls-2" x="651.85" y="185.95" width="230.61" height="29.73"/>
    <text class="cls-8" transform="translate(661.14 203.83)"><tspan x="0" y="0">GuestName</tspan></text>
    <path class="cls-4" d="M852.73,191.99h18.58s1.86,0,1.86,1.86v11.15s0,1.86-1.86,1.86h-18.58s-1.86,0-1.86-1.86v-11.15s0-1.86,1.86-1.86"/>
    <path class="cls-5" d="M860.92,203.6h-1.09l-4.41-7.02h-.04c.01.19.02.4.04.64.01.24.03.49.03.76.01.27.02.54.02.82v4.8h-.87v-8.36h1.08l4.4,7h.04c0-.13-.02-.32-.03-.57-.01-.25-.02-.51-.03-.79,0-.29-.01-.55-.01-.79v-4.84h.89v8.36Z"/>
    <path class="cls-5" d="M869.46,203.6h-1.09l-4.41-7.02h-.04c.01.19.02.4.04.64.01.24.03.49.03.76.01.27.02.54.02.82v4.8h-.87v-8.36h1.08l4.4,7h.04c0-.13-.02-.32-.03-.57-.01-.25-.02-.51-.03-.79,0-.29-.01-.55-.01-.79v-4.84h.89v8.36Z"/>
    <text class="cls-9" transform="translate(766.93 203.83)"><tspan x="0" y="0">varchar[50]</tspan></text>
    <rect class="cls-2" x="651.85" y="215.68" width="230.61" height="29.73"/>
    <text class="cls-8" transform="translate(661.14 233.56)"><tspan x="0" y="0">Email</tspan></text>
    <path class="cls-4" d="M852.73,221.72h18.58s1.86,0,1.86,1.86v11.15s0,1.86-1.86,1.86h-18.58s-1.86,0-1.86-1.86v-11.15s0-1.86,1.86-1.86"/>
    <path class="cls-5" d="M860.92,233.33h-1.09l-4.41-7.02h-.04c.01.19.02.4.04.64.01.24.03.49.03.76.01.27.02.54.02.82v4.8h-.87v-8.36h1.08l4.4,7h.04c0-.13-.02-.32-.03-.57-.01-.25-.02-.51-.03-.79,0-.29-.01-.55-.01-.79v-4.84h.89v8.36Z"/>
    <path class="cls-5" d="M869.46,233.33h-1.09l-4.41-7.02h-.04c.01.19.02.4.04.64.01.24.03.49.03.76.01.27.02.54.02.82v4.8h-.87v-8.36h1.08l4.4,7h.04c0-.13-.02-.32-.03-.57-.01-.25-.02-.51-.03-.79,0-.29-.01-.55-.01-.79v-4.84h.89v8.36Z"/>
    <text class="cls-9" transform="translate(760.02 233.56)"><tspan x="0" y="0">varchar[100]</tspan></text>
    <rect class="cls-2" x="651.85" y="245.41" width="230.61" height="29.73"/>
    <text class="cls-8" transform="translate(661.14 263.29)"><tspan x="0" y="0">Password</tspan></text>
    <path class="cls-4" d="M852.73,251.45h18.58s1.86,0,1.86,1.86v11.15s0,1.86-1.86,1.86h-18.58s-1.86,0-1.86-1.86v-11.15s0-1.86,1.86-1.86"/>
    <path class="cls-5" d="M860.92,263.06h-1.09l-4.41-7.02h-.04c.01.19.02.4.04.64.01.24.03.49.03.76.01.27.02.54.02.82v4.8h-.87v-8.36h1.08l4.4,7h.04c0-.13-.02-.32-.03-.57-.01-.25-.02-.51-.03-.79,0-.29-.01-.55-.01-.79v-4.84h.89v8.36Z"/>
    <path class="cls-5" d="M869.46,263.06h-1.09l-4.41-7.02h-.04c.01.19.02.4.04.64.01.24.03.49.03.76.01.27.02.54.02.82v4.8h-.87v-8.36h1.08l4.4,7h.04c0-.13-.02-.32-.03-.57-.01-.25-.02-.51-.03-.79,0-.29-.01-.55-.01-.79v-4.84h.89v8.36Z"/>
    <text class="cls-9" transform="translate(760.02 263.29)"><tspan x="0" y="0">varchar[100]</tspan></text>
    <rect class="cls-2" x="651.85" y="275.14" width="230.61" height="29.73"/>
    <text class="cls-8" transform="translate(661.14 293.02)"><tspan x="0" y="0">PhoneNumber</tspan></text>
    <text class="cls-9" transform="translate(792.94 293.02)"><tspan x="0" y="0">varchar[20]</tspan></text>
    <rect class="cls-2" x="651.85" y="304.87" width="230.61" height="29.73"/>
    <text class="cls-8" transform="translate(661.14 322.75)"><tspan x="0" y="0">ProfilePicture</tspan></text>
    <text class="cls-9" transform="translate(786.03 322.75)"><tspan x="0" y="0">varchar[255]</tspan></text>
    <rect class="cls-2" x="651.85" y="334.6" width="230.61" height="29.73"/>
    <text class="cls-8" transform="translate(661.14 352.48)"><tspan x="0" y="0">DateJoined</tspan></text>
    <path class="cls-4" d="M852.73,340.64h18.58s1.86,0,1.86,1.86v11.15s0,1.86-1.86,1.86h-18.58s-1.86,0-1.86-1.86v-11.15s0-1.86,1.86-1.86"/>
    <path class="cls-5" d="M860.92,352.25h-1.09l-4.41-7.02h-.04c.01.19.02.4.04.64.01.24.03.49.03.76.01.27.02.54.02.82v4.8h-.87v-8.36h1.08l4.4,7h.04c0-.13-.02-.32-.03-.57-.01-.25-.02-.51-.03-.79,0-.29-.01-.55-.01-.79v-4.84h.89v8.36Z"/>
    <path class="cls-5" d="M869.46,352.25h-1.09l-4.41-7.02h-.04c.01.19.02.4.04.64.01.24.03.49.03.76.01.27.02.54.02.82v4.8h-.87v-8.36h1.08l4.4,7h.04c0-.13-.02-.32-.03-.57-.01-.25-.02-.51-.03-.79,0-.29-.01-.55-.01-.79v-4.84h.89v8.36Z"/>
    <text class="cls-9" transform="translate(817.97 352.48)"><tspan x="0" y="0">date</tspan></text>
    <rect class="cls-2" x="651.85" y="364.33" width="230.61" height="29.73"/>
    <text class="cls-8" transform="translate(661.14 382.21)"><tspan x="0" y="0">TotalBookings</tspan></text>
    <path class="cls-4" d="M852.73,370.37h18.58s1.86,0,1.86,1.86v11.15s0,1.86-1.86,1.86h-18.58s-1.86,0-1.86-1.86v-11.15s0-1.86,1.86-1.86"/>
    <path class="cls-5" d="M860.92,381.98h-1.09l-4.41-7.02h-.04c.01.19.02.4.04.64.01.24.03.49.03.76.01.27.02.54.02.82v4.8h-.87v-8.36h1.08l4.4,7h.04c0-.13-.02-.32-.03-.57-.01-.25-.02-.51-.03-.79,0-.29-.01-.55-.01-.79v-4.84h.89v8.36Z"/>
    <path class="cls-5" d="M869.46,381.98h-1.09l-4.41-7.02h-.04c.01.19.02.4.04.64.01.24.03.49.03.76.01.27.02.54.02.82v4.8h-.87v-8.36h1.08l4.4,7h.04c0-.13-.02-.32-.03-.57-.01-.25-.02-.51-.03-.79,0-.29-.01-.55-.01-.79v-4.84h.89v8.36Z"/>
    <text class="cls-9" transform="translate(828.4 382.21)"><tspan x="0" y="0">int</tspan></text>
    <rect class="cls-2" x="651.85" y="394.06" width="230.61" height="29.73"/>
    <text class="cls-8" transform="translate(661.14 411.95)"><tspan x="0" y="0">Ratings</tspan></text>
    <path class="cls-4" d="M852.73,400.1h18.58s1.86,0,1.86,1.86v11.15s0,1.86-1.86,1.86h-18.58s-1.86,0-1.86-1.86v-11.15s0-1.86,1.86-1.86"/>
    <path class="cls-5" d="M860.92,411.71h-1.09l-4.41-7.02h-.04c.01.19.02.4.04.64.01.24.03.49.03.76.01.27.02.54.02.82v4.8h-.87v-8.36h1.08l4.4,7h.04c0-.13-.02-.32-.03-.57-.01-.25-.02-.51-.03-.79,0-.29-.01-.55-.01-.79v-4.84h.89v8.36Z"/>
    <path class="cls-5" d="M869.46,411.71h-1.09l-4.41-7.02h-.04c.01.19.02.4.04.64.01.24.03.49.03.76.01.27.02.54.02.82v4.8h-.87v-8.36h1.08l4.4,7h.04c0-.13-.02-.32-.03-.57-.01-.25-.02-.51-.03-.79,0-.29-.01-.55-.01-.79v-4.84h.89v8.36Z"/>
    <text class="cls-9" transform="translate(828.4 411.95)"><tspan x="0" y="0">int</tspan></text>
    <rect class="cls-2" x="651.85" y="423.79" width="230.61" height="29.73"/>
    <text class="cls-8" transform="translate(661.14 441.68)"><tspan x="0" y="0">Reviews</tspan></text>
    <path class="cls-4" d="M852.73,429.83h18.58s1.86,0,1.86,1.86v11.15s0,1.86-1.86,1.86h-18.58s-1.86,0-1.86-1.86v-11.15s0-1.86,1.86-1.86"/>
    <path class="cls-5" d="M860.92,441.44h-1.09l-4.41-7.02h-.04c.01.19.02.4.04.64.01.24.03.49.03.76.01.27.02.54.02.82v4.8h-.87v-8.36h1.08l4.4,7h.04c0-.13-.02-.32-.03-.57-.01-.25-.02-.51-.03-.79,0-.29-.01-.55-.01-.79v-4.84h.89v8.36Z"/>
    <path class="cls-5" d="M869.46,441.44h-1.09l-4.41-7.02h-.04c.01.19.02.4.04.64.01.24.03.49.03.76.01.27.02.54.02.82v4.8h-.87v-8.36h1.08l4.4,7h.04c0-.13-.02-.32-.03-.57-.01-.25-.02-.51-.03-.79,0-.29-.01-.55-.01-.79v-4.84h.89v8.36Z"/>
    <text class="cls-9" transform="translate(828.4 441.68)"><tspan x="0" y="0">int</tspan></text>
    <rect class="cls-1" x="928.92" y="126.49" width="149.24" height="29.73"/>
    <text class="cls-6" transform="translate(938.21 144.37)"><tspan x="0" y="0">GuestReviews</tspan></text>
    <rect class="cls-2" x="928.92" y="156.22" width="149.24" height="29.73"/>
    <text class="cls-8" transform="translate(938.21 174.1)"><tspan x="0" y="0">HostID</tspan></text>
    <text class="cls-9" transform="translate(1050.11 174.1)"><tspan x="0" y="0">int</tspan></text>
    <rect class="cls-2" x="928.92" y="185.95" width="149.24" height="29.73"/>
    <text class="cls-8" transform="translate(938.21 203.83)"><tspan x="0" y="0">GuestID</tspan></text>
    <text class="cls-9" transform="translate(1050.11 203.83)"><tspan x="0" y="0">int</tspan></text>
    <rect class="cls-2" x="928.92" y="215.68" width="149.24" height="29.73"/>
    <text class="cls-8" transform="translate(938.21 233.56)"><tspan x="0" y="0">Rating</tspan></text>
    <path class="cls-4" d="M1048.43,221.72h18.58s1.86,0,1.86,1.86v11.15s0,1.86-1.86,1.86h-18.58s-1.86,0-1.86-1.86v-11.15s0-1.86,1.86-1.86"/>
    <path class="cls-5" d="M1056.62,233.33h-1.09l-4.41-7.02h-.04c.01.19.02.4.04.64.01.24.03.49.03.76.01.27.02.54.02.82v4.8h-.87v-8.36h1.08l4.4,7h.04c0-.13-.02-.32-.03-.57-.01-.25-.02-.51-.03-.79,0-.29-.01-.55-.01-.79v-4.84h.89v8.36Z"/>
    <path class="cls-5" d="M1065.16,233.33h-1.09l-4.41-7.02h-.04c.01.19.02.4.04.64.01.24.03.49.03.76.01.27.02.54.02.82v4.8h-.87v-8.36h1.08l4.4,7h.04c0-.13-.02-.32-.03-.57-.01-.25-.02-.51-.03-.79,0-.29-.01-.55-.01-.79v-4.84h.89v8.36Z"/>
    <text class="cls-9" transform="translate(1024.1 233.56)"><tspan x="0" y="0">int</tspan></text>
    <rect class="cls-2" x="928.92" y="245.41" width="149.24" height="29.73"/>
    <text class="cls-8" transform="translate(938.21 263.29)"><tspan x="0" y="0">Review</tspan></text>
    <text class="cls-9" transform="translate(1043.16 263.29)"><tspan x="0" y="0">text</tspan></text>
    <rect class="cls-1" x="1141.63" y="126.49" width="224.17" height="29.73"/>
    <text class="cls-6" transform="translate(1150.92 144.37)"><tspan x="0" y="0">Hosts</tspan></text>
    <rect class="cls-2" x="1141.63" y="156.22" width="224.17" height="29.73"/>
    <text class="cls-8" transform="translate(1150.92 174.1)"><tspan x="0" y="0">HostID</tspan></text>
    <path class="cls-5" d="M1201.64,165.73c1.52,0,2.74,1.23,2.74,2.74s-1.23,2.74-2.74,2.74c-.36,0-.71-.07-1.02-.2l-.81.81h-.61v.91h-.91v.91h-1.83v-1.83l2.56-2.56c-.08-.26-.12-.53-.12-.8,0-1.52,1.23-2.74,2.74-2.74ZM1201.64,164.81c-2.02,0-3.66,1.64-3.66,3.66,0,.17.01.34.03.5l-2.34,2.34c-.09.09-.13.2-.13.32v2.48c0,.25.2.46.46.46h2.74c.25,0,.46-.2.46-.46v-.46h.46c.25,0,.46-.2.46-.46v-.38l.76-.77c.25.05.5.08.76.08,2.02,0,3.66-1.64,3.66-3.66s-1.64-3.66-3.66-3.66ZM1201.64,167.56c0,.51.41.91.91.91s.91-.41.91-.91-.41-.91-.91-.91-.91.41-.91.91Z"/>
    <text class="cls-9" transform="translate(1335.64 174.1)"><tspan x="0" y="0">int</tspan></text>
    <rect class="cls-2" x="1141.63" y="185.95" width="224.17" height="29.73"/>
    <text class="cls-8" transform="translate(1150.92 203.83)"><tspan x="0" y="0">HostName</tspan></text>
    <path class="cls-4" d="M1336.07,191.99h18.58s1.86,0,1.86,1.86v11.15s0,1.86-1.86,1.86h-18.58s-1.86,0-1.86-1.86v-11.15s0-1.86,1.86-1.86"/>
    <path class="cls-5" d="M1344.26,203.6h-1.09l-4.41-7.02h-.04c.01.19.02.4.04.64.01.24.03.49.03.76.01.27.02.54.02.82v4.8h-.87v-8.36h1.08l4.4,7h.04c0-.13-.02-.32-.03-.57-.01-.25-.02-.51-.03-.79,0-.29-.01-.55-.01-.79v-4.84h.89v8.36Z"/>
    <path class="cls-5" d="M1352.79,203.6h-1.09l-4.41-7.02h-.04c.01.19.02.4.04.64.01.24.03.49.03.76.01.27.02.54.02.82v4.8h-.87v-8.36h1.08l4.4,7h.04c0-.13-.02-.32-.03-.57-.01-.25-.02-.51-.03-.79,0-.29-.01-.55-.01-.79v-4.84h.89v8.36Z"/>
    <text class="cls-9" transform="translate(1250.26 203.83)"><tspan x="0" y="0">varchar[50]</tspan></text>
    <rect class="cls-2" x="1141.63" y="215.68" width="224.17" height="29.73"/>
    <text class="cls-8" transform="translate(1150.92 233.56)"><tspan x="0" y="0">Email</tspan></text>
    <path class="cls-4" d="M1336.07,221.72h18.58s1.86,0,1.86,1.86v11.15s0,1.86-1.86,1.86h-18.58s-1.86,0-1.86-1.86v-11.15s0-1.86,1.86-1.86"/>
    <path class="cls-5" d="M1344.26,233.33h-1.09l-4.41-7.02h-.04c.01.19.02.4.04.64.01.24.03.49.03.76.01.27.02.54.02.82v4.8h-.87v-8.36h1.08l4.4,7h.04c0-.13-.02-.32-.03-.57-.01-.25-.02-.51-.03-.79,0-.29-.01-.55-.01-.79v-4.84h.89v8.36Z"/>
    <path class="cls-5" d="M1352.79,233.33h-1.09l-4.41-7.02h-.04c.01.19.02.4.04.64.01.24.03.49.03.76.01.27.02.54.02.82v4.8h-.87v-8.36h1.08l4.4,7h.04c0-.13-.02-.32-.03-.57-.01-.25-.02-.51-.03-.79,0-.29-.01-.55-.01-.79v-4.84h.89v8.36Z"/>
    <text class="cls-9" transform="translate(1243.36 233.56)"><tspan x="0" y="0">varchar[100]</tspan></text>
    <rect class="cls-2" x="1141.63" y="245.41" width="224.17" height="29.73"/>
    <text class="cls-8" transform="translate(1150.92 263.29)"><tspan x="0" y="0">Password</tspan></text>
    <path class="cls-4" d="M1336.07,251.45h18.58s1.86,0,1.86,1.86v11.15s0,1.86-1.86,1.86h-18.58s-1.86,0-1.86-1.86v-11.15s0-1.86,1.86-1.86"/>
    <path class="cls-5" d="M1344.26,263.06h-1.09l-4.41-7.02h-.04c.01.19.02.4.04.64.01.24.03.49.03.76.01.27.02.54.02.82v4.8h-.87v-8.36h1.08l4.4,7h.04c0-.13-.02-.32-.03-.57-.01-.25-.02-.51-.03-.79,0-.29-.01-.55-.01-.79v-4.84h.89v8.36Z"/>
    <path class="cls-5" d="M1352.79,263.06h-1.09l-4.41-7.02h-.04c.01.19.02.4.04.64.01.24.03.49.03.76.01.27.02.54.02.82v4.8h-.87v-8.36h1.08l4.4,7h.04c0-.13-.02-.32-.03-.57-.01-.25-.02-.51-.03-.79,0-.29-.01-.55-.01-.79v-4.84h.89v8.36Z"/>
    <text class="cls-9" transform="translate(1243.36 263.29)"><tspan x="0" y="0">varchar[100]</tspan></text>
    <rect class="cls-2" x="1141.63" y="275.14" width="224.17" height="29.73"/>
    <text class="cls-8" transform="translate(1150.92 293.02)"><tspan x="0" y="0">PhoneNumber</tspan></text>
    <text class="cls-9" transform="translate(1276.28 293.02)"><tspan x="0" y="0">varchar[20]</tspan></text>
    <rect class="cls-2" x="1141.63" y="304.87" width="224.17" height="29.73"/>
    <text class="cls-8" transform="translate(1150.92 322.75)"><tspan x="0" y="0">ProfilePicture</tspan></text>
    <text class="cls-9" transform="translate(1269.37 322.75)"><tspan x="0" y="0">varchar[255]</tspan></text>
    <rect class="cls-2" x="1141.63" y="334.6" width="224.17" height="29.73"/>
    <text class="cls-8" transform="translate(1150.92 352.48)"><tspan x="0" y="0">DateJoined</tspan></text>
    <path class="cls-4" d="M1336.07,340.64h18.58s1.86,0,1.86,1.86v11.15s0,1.86-1.86,1.86h-18.58s-1.86,0-1.86-1.86v-11.15s0-1.86,1.86-1.86"/>
    <path class="cls-5" d="M1344.26,352.25h-1.09l-4.41-7.02h-.04c.01.19.02.4.04.64.01.24.03.49.03.76.01.27.02.54.02.82v4.8h-.87v-8.36h1.08l4.4,7h.04c0-.13-.02-.32-.03-.57-.01-.25-.02-.51-.03-.79,0-.29-.01-.55-.01-.79v-4.84h.89v8.36Z"/>
    <path class="cls-5" d="M1352.79,352.25h-1.09l-4.41-7.02h-.04c.01.19.02.4.04.64.01.24.03.49.03.76.01.27.02.54.02.82v4.8h-.87v-8.36h1.08l4.4,7h.04c0-.13-.02-.32-.03-.57-.01-.25-.02-.51-.03-.79,0-.29-.01-.55-.01-.79v-4.84h.89v8.36Z"/>
    <text class="cls-9" transform="translate(1296.73 352.48)"><tspan x="0" y="0">DATE</tspan></text>
    <rect class="cls-2" x="1141.63" y="364.33" width="224.17" height="29.73"/>
    <text class="cls-8" transform="translate(1150.92 382.21)"><tspan x="0" y="0">TotalListings</tspan></text>
    <path class="cls-4" d="M1336.07,370.37h18.58s1.86,0,1.86,1.86v11.15s0,1.86-1.86,1.86h-18.58s-1.86,0-1.86-1.86v-11.15s0-1.86,1.86-1.86"/>
    <path class="cls-5" d="M1344.26,381.98h-1.09l-4.41-7.02h-.04c.01.19.02.4.04.64.01.24.03.49.03.76.01.27.02.54.02.82v4.8h-.87v-8.36h1.08l4.4,7h.04c0-.13-.02-.32-.03-.57-.01-.25-.02-.51-.03-.79,0-.29-.01-.55-.01-.79v-4.84h.89v8.36Z"/>
    <path class="cls-5" d="M1352.79,381.98h-1.09l-4.41-7.02h-.04c.01.19.02.4.04.64.01.24.03.49.03.76.01.27.02.54.02.82v4.8h-.87v-8.36h1.08l4.4,7h.04c0-.13-.02-.32-.03-.57-.01-.25-.02-.51-.03-.79,0-.29-.01-.55-.01-.79v-4.84h.89v8.36Z"/>
    <text class="cls-9" transform="translate(1311.74 382.21)"><tspan x="0" y="0">int</tspan></text>
    <rect class="cls-2" x="1141.63" y="394.06" width="224.17" height="29.73"/>
    <text class="cls-8" transform="translate(1150.92 411.95)"><tspan x="0" y="0">TotalBookings</tspan></text>
    <path class="cls-4" d="M1336.07,400.1h18.58s1.86,0,1.86,1.86v11.15s0,1.86-1.86,1.86h-18.58s-1.86,0-1.86-1.86v-11.15s0-1.86,1.86-1.86"/>
    <path class="cls-5" d="M1344.26,411.71h-1.09l-4.41-7.02h-.04c.01.19.02.4.04.64.01.24.03.49.03.76.01.27.02.54.02.82v4.8h-.87v-8.36h1.08l4.4,7h.04c0-.13-.02-.32-.03-.57-.01-.25-.02-.51-.03-.79,0-.29-.01-.55-.01-.79v-4.84h.89v8.36Z"/>
    <path class="cls-5" d="M1352.79,411.71h-1.09l-4.41-7.02h-.04c.01.19.02.4.04.64.01.24.03.49.03.76.01.27.02.54.02.82v4.8h-.87v-8.36h1.08l4.4,7h.04c0-.13-.02-.32-.03-.57-.01-.25-.02-.51-.03-.79,0-.29-.01-.55-.01-.79v-4.84h.89v8.36Z"/>
    <text class="cls-9" transform="translate(1311.74 411.95)"><tspan x="0" y="0">int</tspan></text>
    <rect class="cls-2" x="1141.63" y="423.79" width="224.17" height="29.73"/>
    <text class="cls-8" transform="translate(1150.92 441.68)"><tspan x="0" y="0">Ratings</tspan></text>
    <path class="cls-4" d="M1336.07,429.83h18.58s1.86,0,1.86,1.86v11.15s0,1.86-1.86,1.86h-18.58s-1.86,0-1.86-1.86v-11.15s0-1.86,1.86-1.86"/>
    <path class="cls-5" d="M1344.26,441.44h-1.09l-4.41-7.02h-.04c.01.19.02.4.04.64.01.24.03.49.03.76.01.27.02.54.02.82v4.8h-.87v-8.36h1.08l4.4,7h.04c0-.13-.02-.32-.03-.57-.01-.25-.02-.51-.03-.79,0-.29-.01-.55-.01-.79v-4.84h.89v8.36Z"/>
    <path class="cls-5" d="M1352.79,441.44h-1.09l-4.41-7.02h-.04c.01.19.02.4.04.64.01.24.03.49.03.76.01.27.02.54.02.82v4.8h-.87v-8.36h1.08l4.4,7h.04c0-.13-.02-.32-.03-.57-.01-.25-.02-.51-.03-.79,0-.29-.01-.55-.01-.79v-4.84h.89v8.36Z"/>
    <text class="cls-9" transform="translate(1311.74 441.68)"><tspan x="0" y="0">int</tspan></text>
    <rect class="cls-2" x="1141.63" y="453.52" width="224.17" height="29.73"/>
    <text class="cls-8" transform="translate(1150.92 471.41)"><tspan x="0" y="0">Reviews</tspan></text>
    <path class="cls-4" d="M1336.07,459.56h18.58s1.86,0,1.86,1.86v11.15s0,1.86-1.86,1.86h-18.58s-1.86,0-1.86-1.86v-11.15s0-1.86,1.86-1.86"/>
    <path class="cls-5" d="M1344.26,471.17h-1.09l-4.41-7.02h-.04c.01.19.02.4.04.64.01.24.03.49.03.76.01.27.02.54.02.82v4.8h-.87v-8.36h1.08l4.4,7h.04c0-.13-.02-.32-.03-.57-.01-.25-.02-.51-.03-.79,0-.29-.01-.55-.01-.79v-4.84h.89v8.36Z"/>
    <path class="cls-5" d="M1352.79,471.17h-1.09l-4.41-7.02h-.04c.01.19.02.4.04.64.01.24.03.49.03.76.01.27.02.54.02.82v4.8h-.87v-8.36h1.08l4.4,7h.04c0-.13-.02-.32-.03-.57-.01-.25-.02-.51-.03-.79,0-.29-.01-.55-.01-.79v-4.84h.89v8.36Z"/>
    <text class="cls-9" transform="translate(1311.74 471.41)"><tspan x="0" y="0">int</tspan></text>
    <rect class="cls-1" x="47.57" y="126.49" width="231.52" height="29.73"/>
    <text class="cls-6" transform="translate(56.86 144.37)"><tspan x="0" y="0">Bookings</tspan></text>
    <rect class="cls-2" x="47.57" y="156.22" width="231.52" height="29.73"/>
    <text class="cls-8" transform="translate(56.86 174.1)"><tspan x="0" y="0">BookingID</tspan></text>
    <path class="cls-5" d="M128.62,165.73c1.52,0,2.74,1.23,2.74,2.74s-1.23,2.74-2.74,2.74c-.36,0-.71-.07-1.02-.2l-.81.81h-.61v.91h-.91v.91h-1.83v-1.83l2.56-2.56c-.08-.26-.12-.53-.12-.8,0-1.52,1.23-2.74,2.74-2.74ZM128.62,164.81c-2.02,0-3.66,1.64-3.66,3.66,0,.17.01.34.03.5l-2.34,2.34c-.09.09-.13.2-.13.32v2.48c0,.25.2.46.46.46h2.74c.25,0,.46-.2.46-.46v-.46h.46c.25,0,.46-.2.46-.46v-.38l.76-.77c.25.05.5.08.76.08,2.02,0,3.66-1.64,3.66-3.66s-1.64-3.66-3.66-3.66ZM128.62,167.56c0,.51.41.91.91.91s.91-.41.91-.91-.41-.91-.91-.91-.91.41-.91.91Z"/>
    <text class="cls-9" transform="translate(248.94 174.1)"><tspan x="0" y="0">int</tspan></text>
    <rect class="cls-2" x="47.57" y="185.95" width="231.52" height="29.73"/>
    <text class="cls-8" transform="translate(56.86 203.83)"><tspan x="0" y="0">GuestID</tspan></text>
    <text class="cls-9" transform="translate(251.04 203.83)"><tspan x="0" y="0">int</tspan></text>
    <rect class="cls-2" x="47.57" y="215.68" width="231.52" height="29.73"/>
    <text class="cls-8" transform="translate(56.86 233.56)"><tspan x="0" y="0">ListingID</tspan></text>
    <text class="cls-9" transform="translate(251.04 233.56)"><tspan x="0" y="0">int</tspan></text>
    <rect class="cls-2" x="47.57" y="245.41" width="231.52" height="29.73"/>
    <text class="cls-8" transform="translate(56.86 263.29)"><tspan x="0" y="0">HostID</tspan></text>
    <text class="cls-9" transform="translate(251.04 263.29)"><tspan x="0" y="0">int</tspan></text>
    <rect class="cls-2" x="47.57" y="275.14" width="231.52" height="29.73"/>
    <text class="cls-8" transform="translate(56.86 293.02)"><tspan x="0" y="0">CheckInDate</tspan></text>
    <path class="cls-4" d="M249.36,281.18h18.58s1.86,0,1.86,1.86v11.15s0,1.86-1.86,1.86h-18.58s-1.86,0-1.86-1.86v-11.15s0-1.86,1.86-1.86"/>
    <path class="cls-5" d="M257.55,292.79h-1.09l-4.41-7.02h-.04c.01.19.02.4.04.64.01.24.03.49.03.76.01.27.02.54.02.82v4.8h-.87v-8.36h1.08l4.4,7h.04c0-.13-.02-.32-.03-.57-.01-.25-.02-.51-.03-.79,0-.29-.01-.55-.01-.79v-4.84h.89v8.36Z"/>
    <path class="cls-5" d="M266.09,292.79h-1.09l-4.41-7.02h-.04c.01.19.02.4.04.64.01.24.03.49.03.76.01.27.02.54.02.82v4.8h-.87v-8.36h1.08l4.4,7h.04c0-.13-.02-.32-.03-.57-.01-.25-.02-.51-.03-.79,0-.29-.01-.55-.01-.79v-4.84h.89v8.36Z"/>
    <text class="cls-9" transform="translate(210.02 293.02)"><tspan x="0" y="0">DATE</tspan></text>
    <rect class="cls-2" x="47.57" y="304.87" width="231.52" height="29.73"/>
    <text class="cls-8" transform="translate(56.86 322.75)"><tspan x="0" y="0">CheckOutDate</tspan></text>
    <path class="cls-4" d="M249.36,310.91h18.58s1.86,0,1.86,1.86v11.15s0,1.86-1.86,1.86h-18.58s-1.86,0-1.86-1.86v-11.15s0-1.86,1.86-1.86"/>
    <path class="cls-5" d="M257.55,322.52h-1.09l-4.41-7.02h-.04c.01.19.02.4.04.64.01.24.03.49.03.76.01.27.02.54.02.82v4.8h-.87v-8.36h1.08l4.4,7h.04c0-.13-.02-.32-.03-.57-.01-.25-.02-.51-.03-.79,0-.29-.01-.55-.01-.79v-4.84h.89v8.36Z"/>
    <path class="cls-5" d="M266.09,322.52h-1.09l-4.41-7.02h-.04c.01.19.02.4.04.64.01.24.03.49.03.76.01.27.02.54.02.82v4.8h-.87v-8.36h1.08l4.4,7h.04c0-.13-.02-.32-.03-.57-.01-.25-.02-.51-.03-.79,0-.29-.01-.55-.01-.79v-4.84h.89v8.36Z"/>
    <text class="cls-9" transform="translate(210.02 322.75)"><tspan x="0" y="0">DATE</tspan></text>
    <rect class="cls-2" x="47.57" y="334.6" width="231.52" height="29.73"/>
    <text class="cls-8" transform="translate(56.86 352.48)"><tspan x="0" y="0">TotalPrice</tspan></text>
    <path class="cls-4" d="M249.36,340.64h18.58s1.86,0,1.86,1.86v11.15s0,1.86-1.86,1.86h-18.58s-1.86,0-1.86-1.86v-11.15s0-1.86,1.86-1.86"/>
    <path class="cls-5" d="M257.55,352.25h-1.09l-4.41-7.02h-.04c.01.19.02.4.04.64.01.24.03.49.03.76.01.27.02.54.02.82v4.8h-.87v-8.36h1.08l4.4,7h.04c0-.13-.02-.32-.03-.57-.01-.25-.02-.51-.03-.79,0-.29-.01-.55-.01-.79v-4.84h.89v8.36Z"/>
    <path class="cls-5" d="M266.09,352.25h-1.09l-4.41-7.02h-.04c.01.19.02.4.04.64.01.24.03.49.03.76.01.27.02.54.02.82v4.8h-.87v-8.36h1.08l4.4,7h.04c0-.13-.02-.32-.03-.57-.01-.25-.02-.51-.03-.79,0-.29-.01-.55-.01-.79v-4.84h.89v8.36Z"/>
    <text class="cls-9" transform="translate(152.09 352.48)"><tspan x="0" y="0">decimal[10,2]</tspan></text>
    <rect class="cls-2" x="47.57" y="364.33" width="231.52" height="29.73"/>
    <text class="cls-8" transform="translate(56.86 382.21)"><tspan x="0" y="0">NumGuests</tspan></text>
    <path class="cls-4" d="M249.36,370.37h18.58s1.86,0,1.86,1.86v11.15s0,1.86-1.86,1.86h-18.58s-1.86,0-1.86-1.86v-11.15s0-1.86,1.86-1.86"/>
    <path class="cls-5" d="M257.55,381.98h-1.09l-4.41-7.02h-.04c.01.19.02.4.04.64.01.24.03.49.03.76.01.27.02.54.02.82v4.8h-.87v-8.36h1.08l4.4,7h.04c0-.13-.02-.32-.03-.57-.01-.25-.02-.51-.03-.79,0-.29-.01-.55-.01-.79v-4.84h.89v8.36Z"/>
    <path class="cls-5" d="M266.09,381.98h-1.09l-4.41-7.02h-.04c.01.19.02.4.04.64.01.24.03.49.03.76.01.27.02.54.02.82v4.8h-.87v-8.36h1.08l4.4,7h.04c0-.13-.02-.32-.03-.57-.01-.25-.02-.51-.03-.79,0-.29-.01-.55-.01-.79v-4.84h.89v8.36Z"/>
    <text class="cls-9" transform="translate(225.03 382.21)"><tspan x="0" y="0">int</tspan></text>
    <rect class="cls-2" x="47.57" y="394.06" width="231.52" height="29.73"/>
    <text class="cls-8" transform="translate(56.86 411.95)"><tspan x="0" y="0">IsConfirmed</tspan></text>
    <text class="cls-9" transform="translate(209.46 411.95)"><tspan x="0" y="0">BOOLEAN</tspan></text>
    <rect class="cls-2" x="47.57" y="423.79" width="231.52" height="29.73"/>
    <text class="cls-8" transform="translate(56.86 441.68)"><tspan x="0" y="0">Rating</tspan></text>
    <text class="cls-9" transform="translate(251.04 441.68)"><tspan x="0" y="0">int</tspan></text>
    <rect class="cls-2" x="47.57" y="453.52" width="231.52" height="29.73"/>
    <text class="cls-8" transform="translate(56.86 471.41)"><tspan x="0" y="0">ListingReview</tspan></text>
    <text class="cls-9" transform="translate(244.09 471.41)"><tspan x="0" y="0">text</tspan></text>
    <rect class="cls-2" x="47.57" y="483.25" width="231.52" height="29.73"/>
    <text class="cls-8" transform="translate(56.86 501.14)"><tspan x="0" y="0">ListingRating</tspan></text>
    <text class="cls-9" transform="translate(251.04 501.14)"><tspan x="0" y="0">int</tspan></text>
    <rect class="cls-2" x="47.57" y="512.98" width="231.52" height="29.73"/>
    <text class="cls-8" transform="translate(56.86 530.87)"><tspan x="0" y="0">HostReview</tspan></text>
    <text class="cls-9" transform="translate(244.09 530.87)"><tspan x="0" y="0">text</tspan></text>
    <rect class="cls-2" x="47.57" y="542.71" width="231.52" height="29.73"/>
    <text class="cls-8" transform="translate(56.86 560.6)"><tspan x="0" y="0">HostRating</tspan></text>
    <text class="cls-9" transform="translate(251.04 560.6)"><tspan x="0" y="0">int</tspan></text>
    <rect class="cls-2" x="47.57" y="572.44" width="231.52" height="29.73"/>
    <text class="cls-8" transform="translate(56.86 590.33)"><tspan x="0" y="0">GuestReview</tspan></text>
    <text class="cls-9" transform="translate(244.09 590.33)"><tspan x="0" y="0">text</tspan></text>
    <rect class="cls-2" x="47.57" y="602.17" width="231.52" height="29.73"/>
    <text class="cls-8" transform="translate(56.86 620.06)"><tspan x="0" y="0">GuestRating</tspan></text>
    <text class="cls-9" transform="translate(251.04 620.06)"><tspan x="0" y="0">int</tspan></text>
    <rect class="cls-1" x="651.85" y="499.97" width="202.45" height="29.73"/>
    <text class="cls-6" transform="translate(661.14 517.86)"><tspan x="0" y="0">Amenities</tspan></text>
    <rect class="cls-2" x="651.85" y="529.7" width="202.45" height="29.73"/>
    <text class="cls-8" transform="translate(661.14 547.59)"><tspan x="0" y="0">AmenityID</tspan></text>
    <text class="cls-9" transform="translate(826.25 547.59)"><tspan x="0" y="0">int</tspan></text>
    <rect class="cls-2" x="651.85" y="559.43" width="202.45" height="29.73"/>
    <text class="cls-8" transform="translate(661.14 577.32)"><tspan x="0" y="0">Name</tspan></text>
    <path class="cls-4" d="M824.57,565.47h18.58s1.86,0,1.86,1.86v11.15s0,1.86-1.86,1.86h-18.58s-1.86,0-1.86-1.86v-11.15s0-1.86,1.86-1.86"/>
    <path class="cls-5" d="M832.76,577.09h-1.09l-4.41-7.02h-.04c.01.19.02.4.04.64.01.24.03.49.03.76.01.27.02.54.02.82v4.8h-.87v-8.36h1.08l4.4,7h.04c0-.13-.02-.32-.03-.57-.01-.25-.02-.51-.03-.79,0-.29-.01-.55-.01-.79v-4.84h.89v8.36Z"/>
    <path class="cls-5" d="M841.3,577.09h-1.09l-4.41-7.02h-.04c.01.19.02.4.04.64.01.24.03.49.03.76.01.27.02.54.02.82v4.8h-.87v-8.36h1.08l4.4,7h.04c0-.13-.02-.32-.03-.57-.01-.25-.02-.51-.03-.79,0-.29-.01-.55-.01-.79v-4.84h.89v8.36Z"/>
    <text class="cls-9" transform="translate(731.86 577.32)"><tspan x="0" y="0">varchar[100]</tspan></text>
    <rect class="cls-1" x="928.92" y="321.59" width="166.26" height="29.73"/>
    <text class="cls-6" transform="translate(938.21 339.48)"><tspan x="0" y="0">ListingAmenities</tspan></text>
    <rect class="cls-2" x="928.92" y="351.32" width="166.26" height="29.73"/>
    <text class="cls-8" transform="translate(938.21 369.21)"><tspan x="0" y="0">ListingID</tspan></text>
    <text class="cls-9" transform="translate(1067.12 369.21)"><tspan x="0" y="0">int</tspan></text>
    <rect class="cls-2" x="928.92" y="381.05" width="166.26" height="29.73"/>
    <text class="cls-8" transform="translate(938.21 398.94)"><tspan x="0" y="0">AmenityID</tspan></text>
    <text class="cls-9" transform="translate(1067.12 398.94)"><tspan x="0" y="0">int</tspan></text>
  </g>
</svg>